<?xml version="1.0" encoding="utf-8"?>
<!-- Generator: Adobe Illustrator 26.3.1, SVG Export Plug-In . SVG Version: 6.00 Build 0)  -->
<svg version="1.1" id="Layer_1" xmlns="http://www.w3.org/2000/svg" xmlns:xlink="http://www.w3.org/1999/xlink" x="0px" y="0px"
	 viewBox="0 0 595.28 194.64" style="enable-background:new 0 0 595.28 194.64;" xml:space="preserve">
<style type="text/css">
	.st0{fill-rule:evenodd;clip-rule:evenodd;fill:#0060AE;}
</style>
<path class="st0" d="M18.31,19.58L18.31,19.58C43.96,6.46,70.59,0,98.1,0c0.2,0,0.39,0,0.59,0c0.2,0,0.39,0,0.59,0
	c27.51,0,54.14,6.46,79.79,19.58l0,0l1.57,1.66c10.48,24.67,16.45,49.84,16.74,75.39c0,0.49,0,0.88,0,1.37v1.76
	c-0.1,24.58-5.38,49.64-16.74,75.1l-1.76,1.66c-26.73,11.85-53.46,17.82-80.19,18.11c-26.73-0.29-53.46-6.27-80.19-18.11l-1.76-1.66
	C5.39,149.41,0.1,124.35,0,99.77v-1.76c0-0.49,0-0.88,0-1.37c0.29-25.55,6.27-50.72,16.74-75.39L18.31,19.58L18.31,19.58z
	 M98.69,6.66c-0.2,0-0.39,0-0.59,0c-26.14,0-51.3,6.07-75.68,18.31C12.53,48.46,6.95,72.35,6.66,96.73
	c-0.39,24.18,4.6,48.95,15.67,74.22c25.46,11.06,50.91,16.74,76.37,17.04c25.46-0.29,50.91-5.97,76.37-17.04
	c11.06-25.26,16.06-50.03,15.67-74.22c-0.29-24.38-5.87-48.27-15.76-71.77C150.58,12.73,125.42,6.66,99.28,6.66
	C99.08,6.66,98.89,6.66,98.69,6.66z"/>
<path class="st0" d="M100.45,151.66c-1.37-18.7-0.49-38.18-6.07-56c-5.19-16.64-24.87-26.14-25.26-44.45
	c-0.39-14.3,10.48-30.84,30.84-30.84c19.09-0.1,30.94,13.81,32.31,29.28c1.66,17.92-20.07,29.96-25.75,47
	C100.65,114.06,102.31,133.35,100.45,151.66z"/>
<path class="st0" d="M107.99,147.16c-0.78-16.25-0.78-31.82,3.72-45.63c4.99-15.67,15.37-28.88,31.23-33.19
	c10.87-2.94,26.83,9.79,24.28,22.81c-2.15,10.48-12.63,22.81-29.47,24.18c-7.83,0.69-11.16,6.95-16.06,10.57
	c21.93-2.15,36.13-10.77,46.02-19.78c1.47,7.64,2.45,20.46-3.52,24.87c-11.75,8.32-22.62,1.57-36.42,5.48
	C120.03,138.74,115.24,143.63,107.99,147.16z"/>
<path class="st0" d="M93.01,147.16c0.88-16.25,0.78-31.82-3.62-45.63C84.4,85.87,74.02,72.65,58.16,68.34
	c-10.87-2.94-26.92,9.79-24.28,22.81c2.15,10.48,12.63,22.81,29.47,24.18c7.73,0.69,11.16,6.95,16.06,10.57
	c-22.03-2.15-36.13-10.77-46.02-19.78c-1.47,7.64-2.45,20.46,3.52,24.87c11.75,8.32,22.62,1.57,36.42,5.48
	C81.07,138.74,85.77,143.63,93.01,147.16z"/>
<path class="st0" d="M145.2,171.34v-2.64l1.96-0.49l-1.96-2.94v-4.9l8.81,12.24l-3.13,0.78l-2.15-3.04L145.2,171.34L145.2,171.34z
	 M145.2,160.38l-0.59-0.88l-3.13,0.78l-2.06,15.96l3.13-0.78l0.39-3.62l2.25-0.49v-2.64l-1.96,0.49l0.59-5.87l1.37,1.96V160.38
	L145.2,160.38L145.2,160.38z M116.02,179.86L116.02,179.86v-2.55h0.69c1.08-0.1,1.76-0.2,2.06-0.29c0.39-0.1,0.78-0.39,0.98-0.69
	c0.29-0.39,0.39-0.78,0.39-1.27c-0.1-0.49-0.2-0.88-0.49-1.18c-0.2-0.29-0.59-0.49-0.98-0.59c-0.39-0.1-1.27-0.1-2.64,0v-2.55
	c0.78,0,1.27-0.1,1.47-0.1c0.49-0.1,0.88-0.39,1.18-0.69c0.29-0.29,0.39-0.68,0.29-1.17c0-0.49-0.2-0.88-0.49-1.08
	c-0.2-0.29-0.59-0.49-1.18-0.49c-0.2,0-0.59,0-1.27,0.1v-2.55c1.08-0.1,1.86-0.1,2.35,0c0.59,0,1.17,0.2,1.66,0.49
	c0.49,0.2,0.88,0.59,1.27,1.08c0.29,0.49,0.49,1.08,0.59,1.76c0.1,0.69-0.1,1.37-0.39,1.96c-0.29,0.59-0.78,1.08-1.47,1.47
	c0.98,0.2,1.76,0.59,2.25,1.18c0.59,0.59,0.88,1.27,0.98,2.15c0,0.69-0.1,1.37-0.29,2.06c-0.29,0.69-0.69,1.17-1.18,1.66
	c-0.59,0.39-1.17,0.69-1.96,0.88c-0.49,0.1-1.76,0.2-3.62,0.39H116.02L116.02,179.86z M134.52,171.64L134.52,171.64l3.04,0.39
	c-0.2,1.66-0.69,3.04-1.57,4.01c-0.88,0.88-2.15,1.57-3.72,1.86c-1.96,0.29-3.72-0.1-5.19-1.17c-1.57-1.17-2.45-2.84-2.94-5.19
	c-0.39-2.45-0.1-4.5,0.98-6.07c0.98-1.57,2.55-2.55,4.6-2.94c1.86-0.29,3.33,0,4.7,0.88c0.78,0.49,1.47,1.27,1.96,2.45l-2.84,1.18
	c-0.29-0.69-0.78-1.27-1.37-1.57c-0.69-0.39-1.37-0.49-2.15-0.39c-1.08,0.2-1.86,0.78-2.45,1.66c-0.59,0.98-0.69,2.25-0.39,4.01
	c0.39,1.86,0.98,3.13,1.76,3.82c0.78,0.69,1.76,0.98,2.84,0.78c0.78-0.2,1.37-0.59,1.86-1.18
	C134.13,173.59,134.43,172.71,134.52,171.64L134.52,171.64z M116.02,164.78c-0.1,0-0.2,0-0.29,0.1l-5.97,0.49l1.37,14.98l4.9-0.49
	v-2.55l-2.15,0.2l-0.29-4.01l2.35-0.2c0.1,0,0.1,0,0.1,0v-2.55c-0.2,0.1-0.49,0.1-0.69,0.1l-2.06,0.2l-0.29-3.43l1.76-0.2
	c0.49,0,0.88-0.1,1.27-0.1V164.78L116.02,164.78L116.02,164.78z M97.12,174.67L97.12,174.67v-2.55c0.69,0,1.08-0.1,1.37-0.2
	c0.39-0.1,0.69-0.39,0.98-0.68c0.2-0.39,0.29-0.78,0.29-1.18c0.1-0.59-0.1-0.98-0.39-1.37c-0.29-0.39-0.69-0.59-1.18-0.69
	c-0.29,0-0.59-0.1-1.08-0.1v-2.55c1.47,0,2.35,0.1,2.84,0.29c0.88,0.2,1.57,0.69,2.15,1.47c0.59,0.78,0.88,1.76,0.78,2.94
	c0,0.88-0.2,1.66-0.49,2.35c-0.39,0.59-0.78,1.08-1.27,1.47c-0.59,0.29-1.08,0.49-1.66,0.69C98.89,174.67,98.1,174.67,97.12,174.67
	L97.12,174.67z M97.12,165.37c-0.2,0-0.49,0-0.78,0l-4.8-0.1l-0.29,14.98l3.04,0.1l0.1-5.68h1.96c0.29,0,0.59,0,0.78,0v-2.55
	c-0.29,0-0.69,0-1.08,0h-1.57v-4.31l1.47,0.1c0.49,0,0.88,0,1.17,0V165.37L97.12,165.37L97.12,165.37z M68.83,173.2L68.83,173.2
	v-4.6c0.88,0.2,1.47,0.2,1.76,0.2c0.39-0.1,0.69-0.2,0.98-0.49c0.2-0.29,0.39-0.59,0.49-1.08c0.1-0.49,0-0.88-0.2-1.27
	c-0.2-0.39-0.59-0.59-1.08-0.78c-0.2-0.1-0.88-0.2-1.96-0.39v-2.55l1.27,0.2c1.57,0.29,2.64,0.59,3.33,0.98
	c0.69,0.39,1.17,0.98,1.47,1.76c0.29,0.68,0.39,1.57,0.2,2.45c-0.2,1.08-0.69,1.96-1.47,2.55c-0.69,0.59-1.76,0.88-3.13,0.88
	c0.59,0.49,1.08,0.98,1.37,1.47c0.39,0.59,0.78,1.47,1.27,2.74l1.27,3.23l-3.52-0.68l-1.57-3.62
	C69.12,173.89,69.02,173.5,68.83,173.2L68.83,173.2z M77.44,163.9L77.44,163.9l2.94,0.29l-0.69,8.13c-0.1,1.27-0.1,2.15-0.1,2.45
	c0.1,0.69,0.39,1.17,0.78,1.57c0.49,0.49,1.08,0.69,1.96,0.78c0.88,0.1,1.57-0.1,1.96-0.39c0.49-0.29,0.78-0.69,0.98-1.17
	c0.1-0.49,0.2-1.37,0.29-2.55l0.69-8.32l3.03,0.29l-0.69,7.83c-0.1,1.86-0.29,3.13-0.59,3.82c-0.2,0.69-0.59,1.37-0.98,1.76
	c-0.49,0.49-1.17,0.88-1.96,1.08c-0.69,0.29-1.66,0.29-2.84,0.2c-1.47-0.1-2.55-0.39-3.23-0.78c-0.69-0.39-1.27-0.88-1.66-1.37
	c-0.39-0.59-0.59-1.18-0.69-1.76c-0.1-0.88-0.1-2.15,0-3.82L77.44,163.9L77.44,163.9z M53.65,168.31L53.65,168.31l0.59-2.45
	l6.36,1.66l-1.57,5.78c-0.78,0.49-1.76,0.78-3.13,0.88c-1.27,0.1-2.45,0-3.62-0.29c-1.57-0.39-2.84-1.08-3.72-1.96
	c-0.98-0.98-1.57-2.15-1.86-3.43c-0.2-1.37-0.2-2.74,0.2-4.11c0.39-1.47,1.08-2.74,2.06-3.82c0.88-0.98,2.06-1.57,3.43-1.86
	c1.08-0.29,2.35-0.2,3.72,0.2c1.76,0.49,3.13,1.17,3.92,2.25c0.78,0.98,1.17,2.25,1.08,3.62l-3.04-0.2c0-0.78-0.2-1.47-0.69-2.06
	c-0.49-0.49-1.08-0.98-1.96-1.18c-1.27-0.29-2.35-0.2-3.33,0.39c-0.98,0.59-1.66,1.76-2.15,3.33c-0.49,1.76-0.39,3.13,0.1,4.21
	c0.59,1.08,1.47,1.76,2.64,2.06c0.69,0.2,1.27,0.2,1.96,0.2c0.69-0.1,1.27-0.29,1.86-0.49l0.49-1.86L53.65,168.31L53.65,168.31z
	 M68.83,162.24L68.83,162.24l-5.09-0.88l-2.55,14.78l2.94,0.49l1.08-6.17l0.69,0.1c0.69,0.1,1.17,0.29,1.47,0.39
	c0.29,0.2,0.49,0.49,0.78,0.78c0.1,0.29,0.39,0.78,0.69,1.47v-4.6c-0.29,0-0.59-0.1-0.98-0.1l-2.15-0.39l0.59-3.72l2.35,0.39
	c0.1,0,0.2,0,0.2,0V162.24z"/>
<path class="st0" d="M535.45,143.93v-27.61h12.14V67.75l-12.14,24.28V31.43h47.68l12.14,139.62H547.6v-27.12H535.45L535.45,143.93z
	 M535.45,31.43h-16.84l-18.8,35.05h6.76l-32.99,71.18v31.92h29.57l9.4-25.65h22.91v-27.61h-12.14l12.14-24.28V31.43L535.45,31.43
	L535.45,31.43z M473.58,77.94V34.66l14.78,8.22L473.58,77.94L473.58,77.94L473.58,77.94z M355.99,64.52L355.99,64.52
	c0.69-4.01,0.69-7.93,0-11.65V64.52L355.99,64.52z M473.58,34.66L473.58,34.66v43.28l-1.96,4.7c-29.18-20.86-72.26-1.86-74.7,20.17
	c-2.45,23.01,15.08,41.61,59.82,27.71l-15.37,41.12c-59.04,6.56-81.95-16.84-85.38-44.16v-15.47c0.88-7.15,2.74-14.1,5.29-20.56
	c29.08-72.26,76.27-56,94.19-57.38l2.64-8.03L473.58,34.66L473.58,34.66z M473.58,137.66v31.92h-14.78L473.58,137.66L473.58,137.66
	L473.58,137.66z M302.92,168.7v-33.97c9.3-6.17,14.39-26.14,0-28.88V84.69h5.97c13.32,0,14.69-27.61,4.01-27.61h-9.99V30.25
	l24.09,0.49c17.53,0.29,26.83,10.08,28.98,22.13v11.65c-1.86,11.55-9.4,23.2-21.54,29.67C365.59,124.44,334.55,162.43,302.92,168.7
	L302.92,168.7L302.92,168.7z M355.99,112.01c-0.59,5.19-0.59,10.38,0,15.47V112.01L355.99,112.01L355.99,112.01z M261.22,29.37
	L261.22,29.37l-19.48,37.79l8.71-0.69l-23.5,103.1h67.26c2.94,0,5.78-0.29,8.71-0.88v-33.97c-1.66,1.17-3.52,1.86-5.39,1.86h-24.18
	l8.03-31.04h18.11c1.27,0,2.45,0.1,3.43,0.29V84.69h-16.84l6.76-27.61h10.08V30.25L261.22,29.37z"/>
</svg>
